<?xml version="1.0" encoding="UTF-8" standalone="no"?>
<svg width="196px" height="196px" viewBox="0 0 196 196" version="1.1" xmlns="http://www.w3.org/2000/svg" xmlns:xlink="http://www.w3.org/1999/xlink">
    <!-- Generator: Sketch 39.1 (31720) - http://www.bohemiancoding.com/sketch -->
    <title>Icon-Final</title>
    <desc>Created with Sketch.</desc>
    <defs>
        <path d="M12,24 C18.627417,24 24,18.627417 24,12 C24,5.372583 18.627417,0 12,0 C5.372583,0 0,5.372583 0,12 C0,18.627417 5.372583,24 12,24 Z" id="path-1"></path>
        <mask id="mask-2" maskContentUnits="userSpaceOnUse" maskUnits="objectBoundingBox" x="0" y="0" width="24" height="24" fill="white">
            <use xlink:href="#path-1"></use>
        </mask>
        <path d="M12,154 C18.627417,154 24,148.627417 24,142 C24,135.372583 18.627417,130 12,130 C5.372583,130 0,135.372583 0,142 C0,148.627417 5.372583,154 12,154 Z" id="path-3"></path>
        <mask id="mask-4" maskContentUnits="userSpaceOnUse" maskUnits="objectBoundingBox" x="0" y="0" width="24" height="24" fill="white">
            <use xlink:href="#path-3"></use>
        </mask>
        <path d="M142,154 C148.627417,154 154,148.627417 154,142 C154,135.372583 148.627417,130 142,130 C135.372583,130 130,135.372583 130,142 C130,148.627417 135.372583,154 142,154 Z" id="path-5"></path>
        <mask id="mask-6" maskContentUnits="userSpaceOnUse" maskUnits="objectBoundingBox" x="0" y="0" width="24" height="24" fill="white">
            <use xlink:href="#path-5"></use>
        </mask>
        <path d="M142,24 C148.627417,24 154,18.627417 154,12 C154,5.372583 148.627417,0 142,0 C135.372583,0 130,5.372583 130,12 C130,18.627417 135.372583,24 142,24 Z" id="path-7"></path>
        <mask id="mask-8" maskContentUnits="userSpaceOnUse" maskUnits="objectBoundingBox" x="0" y="0" width="24" height="24" fill="white">
            <use xlink:href="#path-7"></use>
        </mask>
        <circle id="path-9" cx="77" cy="77" r="40"></circle>
        <mask id="mask-10" maskContentUnits="userSpaceOnUse" maskUnits="objectBoundingBox" x="-0.5" y="-0.5" width="81" height="81">
            <rect x="36.5" y="36.5" width="81" height="81" fill="white"></rect>
            <use xlink:href="#path-9" fill="black"></use>
        </mask>
        <rect id="path-11" x="1" y="1" width="152" height="152" rx="10"></rect>
        <mask id="mask-12" maskContentUnits="userSpaceOnUse" maskUnits="objectBoundingBox" x="-1.5" y="-1.5" width="155" height="155">
            <rect x="-0.5" y="-0.5" width="155" height="155" fill="white"></rect>
            <use xlink:href="#path-11" fill="black"></use>
        </mask>
        <filter x="-50%" y="-50%" width="200%" height="200%" filterUnits="objectBoundingBox" id="filter-13">
            <feOffset dx="0" dy="2" in="SourceAlpha" result="shadowOffsetOuter1"></feOffset>
            <feGaussianBlur stdDeviation="2" in="shadowOffsetOuter1" result="shadowBlurOuter1"></feGaussianBlur>
            <feColorMatrix values="0 0 0 0 0   0 0 0 0 0   0 0 0 0 0  0 0 0 0.5 0" type="matrix" in="shadowBlurOuter1" result="shadowMatrixOuter1"></feColorMatrix>
            <feMerge>
                <feMergeNode in="shadowMatrixOuter1"></feMergeNode>
                <feMergeNode in="SourceGraphic"></feMergeNode>
            </feMerge>
        </filter>
        <path d="M57.7430722,74.7251936 C67.6637028,74.7251936 75.7059629,66.6829336 75.7059629,56.762303 C75.7059629,46.8416725 67.6637028,38.7994124 57.7430722,38.7994124 C47.8224417,38.7994124 39.7801816,46.8416725 39.7801816,56.762303 C39.7801816,66.6829336 47.8224417,74.7251936 57.7430722,74.7251936 Z" id="path-14"></path>
        <filter x="-50%" y="-50%" width="200%" height="200%" filterUnits="objectBoundingBox" id="filter-15">
            <feOffset dx="0" dy="2" in="SourceAlpha" result="shadowOffsetOuter1"></feOffset>
            <feGaussianBlur stdDeviation="2" in="shadowOffsetOuter1" result="shadowBlurOuter1"></feGaussianBlur>
            <feColorMatrix values="0 0 0 0 0   0 0 0 0 0   0 0 0 0 0  0 0 0 0.5 0" type="matrix" in="shadowBlurOuter1"></feColorMatrix>
        </filter>
    </defs>
    <g id="Page-1" stroke="none" stroke-width="1" fill="none" fill-rule="evenodd">
        <g id="Icons" transform="translate(-86.000000, -86.000000)">
            <g id="line-guides" opacity="0.896280317" transform="translate(85.000000, 85.000000)" stroke-linecap="square" stroke="#CCCCCC">
                <g id="Line-+-Line">
                    <g id="Line-+-Line-+-Line" transform="translate(69.000000, 1.000000)">
                        <path d="M58.5,0.5 L58.5,195.5" id="Line"></path>
                        <path d="M1.5,0.5 L1.5,196.5" id="Line"></path>
                    </g>
                    <g id="Line-+-Line-+-Line" transform="translate(1.000000, 69.000000)">
                        <path d="M0.5,1.5 L195.564087,1.5" id="Line"></path>
                        <path d="M0,58.5 L196.5,58.5" id="Line"></path>
                    </g>
                    <g id="Line" stroke-width="0.5">
                        <path d="M197.5,0.5 L0.5,197.5"></path>
                        <path d="M1,1 L197,197"></path>
                    </g>
                </g>
                <g id="Line-+-Line" transform="translate(1.000000, 0.000000)">
                    <path d="M0,98.8333333 L196.504517,98.8333334" id="Line"></path>
                    <path d="M98.5,0.5 L98.5,197.5" id="Line"></path>
                </g>
            </g>
            <g id="geometry-square" transform="translate(107.000000, 107.000000)">
                <g id="Line-+-Line" stroke="#979797" stroke-width="0.5" stroke-linecap="square">
                    <path d="M42,154 L154,69" id="Line"></path>
                    <path d="M0,126 L125,0" id="Line"></path>
                </g>
                <use id="Oval-3" stroke="#CCCCCC" mask="url(#mask-2)" xlink:href="#path-1"></use>
                <use id="Oval-4" stroke="#CCCCCC" mask="url(#mask-4)" xlink:href="#path-3"></use>
                <use id="Oval-5" stroke="#CCCCCC" mask="url(#mask-6)" xlink:href="#path-5"></use>
                <use id="Oval-4" stroke="#CCCCCC" mask="url(#mask-8)" xlink:href="#path-7"></use>
                <use id="main-circle" stroke="#CCCCCC" mask="url(#mask-10)" xlink:href="#path-9"></use>
                <g id="square-sample">
                    <use fill-opacity="0.2" fill="#D8D8D8" fill-rule="evenodd" xlink:href="#path-11"></use>
                    <use stroke="#979797" mask="url(#mask-12)" stroke-width="3" xlink:href="#path-11"></use>
                </g>
            </g>
        </g>
        <g id="Icon-Final">
            <g id="Icon" transform="translate(40.000000, 22.000000)">
                <path d="M86.0281621,30.4007039 C91.5928975,36.8171536 95.1446693,45.026688 95.7009072,54.046737 L62.382129,54.046737 L86.0281621,30.4007039 Z M82.5309744,26.8414017 C76.1561816,21.1130234 67.9270907,17.4073705 58.8538841,16.7346257 L58.8538841,50.5184921 L82.5309744,26.8414017 Z M26.1598878,83.2124884 C20.3266784,76.7210349 16.5909048,68.3067939 16.0192308,59.0364288 L50.3359473,59.0364288 L26.1598878,83.2124884 Z M29.71919,86.709676 C36.2537603,92.3768529 44.648041,95.9562705 53.8641922,96.4100889 L53.8641922,62.5646738 L29.71919,86.709676 Z M86.0281621,82.6824619 C91.5928975,76.2660123 95.1446693,68.0564778 95.7009072,59.0364288 L62.382129,59.0364288 L86.0281621,82.6824619 Z M82.5309744,86.2417641 C76.1561816,91.9701425 67.9270907,95.6757953 58.8538841,96.3485402 L58.8538841,62.5646738 L82.5309744,86.2417641 Z M26.1598878,29.8706775 C20.3266784,36.3621309 16.5909048,44.776372 16.0192308,54.046737 L50.3359473,54.046737 L26.1598878,29.8706775 Z M29.71919,26.3734898 C36.2537603,20.706313 44.648041,17.1268953 53.8641922,16.6730769 L53.8641922,50.5184921 L29.71919,26.3734898 Z" id="Wedges" fill="#0280D4"></path>
                <polygon id="Path-3" fill="#0E3E70" points="56.6091406 46.75 51.6538462 56.5262817 61.6332298 56.7293837"></polygon>
                <g id="P-Shape" filter="url(#filter-13)" fill="#0280D4">
                    <path d="M36.568303,4.54183988 C43.4186371,1.61815309 50.9595304,0 58.8783637,0 C90.2936938,0 115.760851,25.4671569 115.760851,56.882487 C115.760851,88.2978171 90.2936938,113.764974 58.8783637,113.764974 C51.4776295,113.764974 44.4069988,112.351633 37.9216573,109.780138 L37.921658,144.68965 C37.921658,149.105123 34.3370033,152.68457 29.925787,152.68457 L7.99587095,152.68457 C3.57987336,152.68457 8.5089343e-14,149.103107 8.5089343e-14,144.68965 L8.5089343e-14,8.99285862 C8.5089343e-14,4.57738609 3.58465473,0.997938368 7.99587095,0.997938368 L29.925787,0.997938368 C32.6936212,0.997938368 35.1329872,2.40490248 36.568303,4.54183988 Z" id="Combined-Shape"></path>
                </g>
                <path d="M57.7430722,106.659221 C85.3003793,106.659221 107.639991,84.3196101 107.639991,56.762303 C107.639991,29.2049959 85.3003793,6.86538462 57.7430722,6.86538462 C30.1857652,6.86538462 7.84615385,29.2049959 7.84615385,56.762303 C7.84615385,84.3196101 30.1857652,106.659221 57.7430722,106.659221 Z" id="Oval-6" fill="#FFFFFF"></path>
                <path d="M87.8344688,30.5723953 C93.3992043,36.9888449 96.9509761,45.1983794 97.5072139,54.2184284 L64.1884358,54.2184284 L87.8344688,30.5723953 Z M84.3372812,27.0130931 C77.9624884,21.2847147 69.7333974,17.5790619 60.6601908,16.906317 L60.6601908,50.6901834 L84.3372812,27.0130931 Z M27.9661945,83.3841798 C22.1329851,76.8927263 18.3972116,68.4784853 17.8255375,59.2081202 L52.1422541,59.2081202 L27.9661945,83.3841798 Z M31.5254968,86.8813674 C38.060067,92.5485442 46.4543478,96.1279619 55.670499,96.5817803 L55.670499,62.7363651 L31.5254968,86.8813674 Z M87.8344688,82.8541533 C93.3992043,76.4377037 96.9509761,68.2281692 97.5072139,59.2081202 L64.1884358,59.2081202 L87.8344688,82.8541533 Z M84.3372812,86.4134555 C77.9624884,92.1418338 69.7333974,95.8474867 60.6601908,96.5202316 L60.6601908,62.7363651 L84.3372812,86.4134555 Z M27.9661945,30.0423688 C22.1329851,36.5338223 18.3972116,44.9480633 17.8255375,54.2184284 L52.1422541,54.2184284 L27.9661945,30.0423688 Z M31.5254968,26.5451812 C38.060067,20.8780043 46.4543478,17.2985867 55.670499,16.8447683 L55.670499,50.6901834 L31.5254968,26.5451812 Z" id="Combined-Shape" fill="#0280D4"></path>
                <g id="Inner-Oval">
                    <use fill="black" fill-opacity="1" filter="url(#filter-15)" xlink:href="#path-14"></use>
                    <use fill="#FFFFFF" fill-rule="evenodd" xlink:href="#path-14"></use>
                </g>
                <polygon id="Dial" fill="#0E3E70" points="57.7086748 46.7829193 52.7533804 56.559201 62.7327641 56.762303"></polygon>
            </g>
        </g>
    </g>
</svg>