<svg id="Layer_1" data-name="Layer 1" xmlns="http://www.w3.org/2000/svg" viewBox="0 0 91 75.56"><title>Roadshow_siteicons</title><circle cx="45.26" cy="19.43" r="16.87" style="fill:#9dd8d8;stroke:#051d49;stroke-linecap:round;stroke-linejoin:round"/><path d="M15.56,63.7c-9.89,1.83-12,8.45-12,10.83" style="fill:none;stroke:#051d49;stroke-linecap:round;stroke-linejoin:round"/><path d="M36.95,74.53c0-2.37-2.14-9.07-12-10.9" style="fill:none;stroke:#051d49;stroke-linecap:round;stroke-linejoin:round"/><path d="M28,51.47c0,4.27-3.46,10.68-7.73,10.68s-7.73-6.41-7.73-10.68A7.73,7.73,0,1,1,28,51.47Z" style="fill:none;stroke:#051d49;stroke-linecap:round;stroke-linejoin:round"/><path d="M65.56,63.7c-9.89,1.83-12,8.45-12,10.83" style="fill:none;stroke:#051d49;stroke-linecap:round;stroke-linejoin:round"/><path d="M86.95,74.53c0-2.37-2.14-9.07-12-10.9" style="fill:none;stroke:#051d49;stroke-linecap:round;stroke-linejoin:round"/><path d="M78,51.47c0,4.27-3.46,10.68-7.73,10.68s-7.73-6.41-7.73-10.68A7.73,7.73,0,1,1,78,51.47Z" style="fill:none;stroke:#051d49;stroke-linecap:round;stroke-linejoin:round"/><rect x="41.99" y="27.93" width="6.54" height="1.79" rx="0.6" ry="0.6" style="fill:#fff;stroke:#051d49;stroke-linecap:round;stroke-linejoin:round"/><path d="M50.69,21.39a7.61,7.61,0,1,0-11,0h0a7.88,7.88,0,0,1,2.41,4.93h6.13a8.14,8.14,0,0,1,2.46-4.93h0Z" style="fill:#fff;stroke:#051d49;stroke-linecap:round;stroke-linejoin:round"/><path d="M47.68,31.24c0,1.09-1.08,1.59-2.42,1.59s-2.42-.5-2.42-1.59h4.84Z" style="fill:#fff;stroke:#051d49;stroke-linecap:round;stroke-linejoin:round"/><polyline points="43.85 17.4 45.27 19.23 45.27 26.3" style="fill:none;stroke:#051d49;stroke-linecap:round;stroke-linejoin:round"/><line x1="46.68" y1="17.34" x2="45.27" y2="19.24" style="fill:none;stroke:#051d49;stroke-linecap:round;stroke-linejoin:round"/><line x1="34.05" y1="32.04" x2="25.5" y2="40.59" style="fill:none;stroke:#051d49;stroke-linecap:round;stroke-linejoin:round"/><line x1="57.3" y1="31.24" x2="66.43" y2="40.38" style="fill:none;stroke:#051d49;stroke-linecap:round;stroke-linejoin:round"/></svg>